<svg width="165" height="165" fill="none" xmlns="http://www.w3.org/2000/svg"><path d="M44.314 5.513a8 8 0 019.77-4.125l25.39 8.557a8 8 0 005.213-.035l25.271-8.902a8 8 0 019.825 3.991l11.903 24.005a7.999 7.999 0 003.711 3.66l24.164 11.575a7.998 7.998 0 014.125 9.77L155.13 79.4a7.994 7.994 0 00.035 5.213l8.902 25.271a8.001 8.001 0 01-3.992 9.826l-24.004 11.903a8 8 0 00-3.661 3.711l-11.575 24.164a8 8 0 01-9.77 4.125l-25.39-8.557a8 8 0 00-5.213.035l-25.27 8.902a8 8 0 01-9.826-3.991l-11.903-24.005a8.003 8.003 0 00-3.711-3.661L5.588 120.761a8 8 0 01-4.125-9.77l8.557-25.39a8 8 0 00-.036-5.213L1.083 55.116a8 8 0 013.991-9.825l24.004-11.903a8 8 0 003.661-3.71L44.314 5.512z" fill="#D03722"/></svg>